# xmcd CD database file
#
# Track frame offsets:
#	150
#	14544
#	32659
#	44688
#	57180
#	72479
#	90159
#	100880
#	115513
#	131467
#	151843
#	167959
#
# Disc length: 2464 seconds
#
# Revision: 0
# Processed by: cddbd v1.5.2PL0 Copyright (c) Steve Scherf et al.
# Submitted via: CDex 1.60beta1
#
DISCID=95099e0c
DTITLE=Crakajak - From A Rock To A Hard Country
DYEAR=1996
DGENRE=Country
TTITLE0=Black And Blue
TTITLE1=My Kinda Country
TTITLE2=Wink
TTITLE3=Red Blooded Man
TTITLE4=Do It Again
TTITLE5=A Travellin' Man
TTITLE6=All Fired Up
TTITLE7=I Want You
TTITLE8=Big Mack
TTITLE9=Spirit In The Sky
TTITLE10=Oh Lord (Don't Tell Me)
TTITLE11=Turn My Back (And Walk Away)
EXTD=YEAR: 1996
EXTT0=
EXTT1=
EXTT2=
EXTT3=
EXTT4=
EXTT5=
EXTT6=
EXTT7=
EXTT8=
EXTT9=
EXTT10=
EXTT11=
PLAYORDER=
